<svg width="1200" height="1200" xmlns="http://www.w3.org/2000/svg"><defs><linearGradient id="a" gradientTransform="rotate(90)"><stop offset="5%" stop-color="#818181"/><stop offset="95%" stop-color="#a0a0a0"/></linearGradient><linearGradient id="b" gradientTransform="rotate(90)"><stop offset="5%" stop-color="#989898"/><stop offset="95%" stop-color="#b1b1b1"/></linearGradient><linearGradient id="c" gradientTransform="rotate(90)"><stop offset="5%" stop-color="#b0b0b0"/><stop offset="95%" stop-color="#c3c3c3"/></linearGradient><linearGradient id="d" gradientTransform="rotate(90)"><stop offset="5%" stop-color="#c7c7c9"/><stop offset="95%" stop-color="#d5d5d6"/></linearGradient><linearGradient id="e" gradientTransform="rotate(90)"><stop offset="5%" stop-color="#dfdee2"/><stop offset="95%" stop-color="#e7e6e9"/></linearGradient></defs><path fill="#696969" d="M0 0h1200v1200H0z"/><path d="M0 200c50.562 13.652 101.124 27.304 143 16 41.876-11.304 75.067-47.563 120-46 44.933 1.563 101.607 40.95 144 43 42.393 2.05 70.506-33.234 114-43 43.494-9.766 102.37 5.985 154 21 51.63 15.015 96.014 29.293 134 26 37.986-3.293 69.573-24.156 112-29 42.427-4.844 95.693 6.33 144 11s91.653 2.835 175 1l-40 1000H0Z" fill="url(#a)"/><path d="M0 400c42.912 11.702 85.824 23.404 127 17s80.617-30.914 129-31c48.383-.086 105.709 24.254 153 21 47.291-3.254 84.548-34.1 128-33 43.452 1.1 93.099 34.146 137 45 43.901 10.854 82.056-.482 125-2s90.677 6.784 133 7c42.323.216 79.235-7.652 123-13s94.382-8.174 185-11l-40 800H0Z" fill="url(#b)"/><path d="M0 600c49.869.431 99.738.863 141-2s73.918-9.019 117-2c43.082 7.019 96.59 27.213 142 30 45.41 2.787 82.723-11.834 128-17s98.519-.879 143 0c44.481.879 80.201-1.651 123 1 42.799 2.651 92.677 10.483 140 6 47.323-4.483 92.092-21.28 136-26 43.908-4.72 86.954 2.64 170 10l-40 600H0Z" fill="url(#c)"/><path d="M0 800c46.554 3.876 93.108 7.752 135 14 41.892 6.248 79.122 14.867 123 14 43.878-.867 94.405-11.222 143-17 48.595-5.778 95.257-6.98 138-9 42.743-2.02 81.566-4.856 125-2s91.477 11.405 136 8c44.523-3.405 85.525-18.763 132-16 46.475 2.763 98.421 23.647 144 28 45.579 4.353 84.79-7.823 164-20l-40 400H0Z" fill="url(#d)"/><path d="M0 1000c39.797-18.377 79.593-36.754 125-33 45.407 3.754 96.423 29.638 145 41 48.577 11.362 94.713 8.202 140 11 45.287 2.798 89.723 11.556 133 13 43.277 1.444 85.395-4.425 128-23 42.605-18.575 85.698-49.855 131-44 45.302 5.855 92.812 48.846 138 67 45.188 18.154 88.054 11.473 131 2s85.973-21.736 169-34l-40 200H0Z" fill="url(#e)"/></svg>